<svg xmlns="http://www.w3.org/2000/svg" width="1760" height="220" viewBox="0 0 1760 220" role="img" aria-label="Music Pet sprite sheet">
  <defs>
    <filter id="shadow" x="-20%" y="-20%" width="140%" height="140%">
      <feDropShadow dx="0" dy="8" stdDeviation="8" flood-color="#110d12" flood-opacity=".22"/>
    </filter>
  </defs>

  <g transform="translate(0 0)">
    <ellipse cx="110" cy="194" rx="68" ry="12" fill="#2a1a1f" opacity=".22"/>
    <g filter="url(#shadow)">
      <circle cx="110" cy="110" r="68" fill="#f27e6e"/>
      <circle cx="84" cy="62" r="18" fill="#8e3954"/>
      <circle cx="136" cy="62" r="18" fill="#8e3954"/>
      <ellipse cx="110" cy="114" rx="44" ry="30" fill="#fff5ef" opacity=".86"/>
      <circle cx="93" cy="104" r="8" fill="#261820"/>
      <circle cx="127" cy="104" r="8" fill="#261820"/>
      <path d="M98 130 C104 138 116 138 122 130" fill="none" stroke="#4b2830" stroke-width="4" stroke-linecap="round"/>
    </g>
  </g>

  <g transform="translate(220 0)">
    <ellipse cx="110" cy="194" rx="68" ry="12" fill="#2a1a1f" opacity=".22"/>
    <g filter="url(#shadow)" transform="translate(0 -6)">
      <circle cx="110" cy="110" r="68" fill="#ff9b7d"/>
      <circle cx="84" cy="62" r="18" fill="#b44d6a"/>
      <circle cx="136" cy="62" r="18" fill="#b44d6a"/>
      <ellipse cx="110" cy="114" rx="44" ry="30" fill="#fff5ef" opacity=".9"/>
      <circle cx="93" cy="104" r="8" fill="#261820"/>
      <circle cx="127" cy="104" r="8" fill="#261820"/>
      <path d="M98 130 C104 140 116 140 122 130" fill="none" stroke="#4b2830" stroke-width="4" stroke-linecap="round"/>
    </g>
  </g>

  <g transform="translate(440 0)">
    <ellipse cx="110" cy="194" rx="68" ry="12" fill="#2a1a1f" opacity=".22"/>
    <g filter="url(#shadow)" transform="translate(0 6) scale(1 0.95)">
      <circle cx="110" cy="110" r="68" fill="#f06d5e"/>
      <circle cx="84" cy="62" r="18" fill="#8e3954"/>
      <circle cx="136" cy="62" r="18" fill="#8e3954"/>
      <ellipse cx="110" cy="114" rx="44" ry="30" fill="#fff5ef" opacity=".86"/>
      <circle cx="93" cy="104" r="7" fill="#261820"/>
      <circle cx="127" cy="104" r="7" fill="#261820"/>
      <path d="M100 132 L120 132" fill="none" stroke="#4b2830" stroke-width="5" stroke-linecap="round"/>
    </g>
  </g>

  <g transform="translate(660 0)">
    <ellipse cx="110" cy="194" rx="68" ry="12" fill="#2a1a1f" opacity=".22"/>
    <g filter="url(#shadow)" transform="translate(0 -8)">
      <circle cx="110" cy="110" r="68" fill="#ffb454"/>
      <circle cx="84" cy="62" r="18" fill="#8e3954"/>
      <circle cx="136" cy="62" r="18" fill="#8e3954"/>
      <ellipse cx="110" cy="114" rx="44" ry="30" fill="#fff8ef" opacity=".9"/>
      <circle cx="93" cy="104" r="8" fill="#261820"/>
      <circle cx="127" cy="104" r="8" fill="#261820"/>
      <path d="M98 130 C104 138 116 138 122 130" fill="none" stroke="#4b2830" stroke-width="4" stroke-linecap="round"/>
      <path d="M148 64 l12 -18 l10 16" fill="none" stroke="#ffffff" stroke-width="5" stroke-linecap="round" stroke-linejoin="round"/>
      <circle cx="170" cy="46" r="5" fill="#ffffff"/>
    </g>
  </g>

  <g transform="translate(880 0)">
    <ellipse cx="110" cy="194" rx="68" ry="12" fill="#2a1a1f" opacity=".22"/>
    <g filter="url(#shadow)" transform="translate(0 -2)">
      <circle cx="110" cy="110" r="68" fill="#ffbf68"/>
      <circle cx="84" cy="62" r="18" fill="#8e3954"/>
      <circle cx="136" cy="62" r="18" fill="#8e3954"/>
      <ellipse cx="110" cy="114" rx="44" ry="30" fill="#fff8ef" opacity=".9"/>
      <circle cx="93" cy="104" r="8" fill="#261820"/>
      <circle cx="127" cy="104" r="8" fill="#261820"/>
      <path d="M98 130 C104 138 116 138 122 130" fill="none" stroke="#4b2830" stroke-width="4" stroke-linecap="round"/>
      <path d="M54 74 l-12 -18 l-10 16" fill="none" stroke="#ffffff" stroke-width="5" stroke-linecap="round" stroke-linejoin="round"/>
      <circle cx="36" cy="56" r="5" fill="#ffffff"/>
    </g>
  </g>

  <g transform="translate(1100 0)">
    <ellipse cx="110" cy="194" rx="68" ry="12" fill="#2a1a1f" opacity=".22"/>
    <g filter="url(#shadow)">
      <circle cx="110" cy="110" r="68" fill="#b5a5ac"/>
      <circle cx="84" cy="62" r="18" fill="#7b6570"/>
      <circle cx="136" cy="62" r="18" fill="#7b6570"/>
      <ellipse cx="110" cy="114" rx="44" ry="30" fill="#f8f1f4" opacity=".86"/>
      <circle cx="93" cy="104" r="8" fill="#41353d"/>
      <circle cx="127" cy="104" r="8" fill="#41353d"/>
      <path d="M98 134 L122 134" fill="none" stroke="#5d4d54" stroke-width="4" stroke-linecap="round"/>
    </g>
  </g>

  <g transform="translate(1320 0)">
    <ellipse cx="110" cy="194" rx="68" ry="12" fill="#2a1a1f" opacity=".22"/>
    <g filter="url(#shadow)">
      <circle cx="110" cy="110" r="68" fill="#f2ad57"/>
      <circle cx="84" cy="62" r="18" fill="#8e3954"/>
      <circle cx="136" cy="62" r="18" fill="#8e3954"/>
      <ellipse cx="110" cy="114" rx="44" ry="30" fill="#fff7ef" opacity=".88"/>
      <circle cx="93" cy="104" r="8" fill="#261820"/>
      <circle cx="127" cy="104" r="8" fill="#261820"/>
      <path d="M98 130 C104 138 116 138 122 130" fill="none" stroke="#4b2830" stroke-width="4" stroke-linecap="round"/>
      <circle cx="90" cy="56" r="6" fill="#ffffff"/>
      <circle cx="110" cy="48" r="6" fill="#ffffff" opacity=".9"/>
      <circle cx="130" cy="56" r="6" fill="#ffffff" opacity=".8"/>
    </g>
  </g>

  <g transform="translate(1540 0)">
    <ellipse cx="110" cy="194" rx="68" ry="12" fill="#2a1a1f" opacity=".22"/>
    <g filter="url(#shadow)">
      <circle cx="110" cy="110" r="68" fill="#d85d68"/>
      <circle cx="84" cy="62" r="18" fill="#7d2334"/>
      <circle cx="136" cy="62" r="18" fill="#7d2334"/>
      <ellipse cx="110" cy="114" rx="44" ry="30" fill="#fff2f2" opacity=".86"/>
      <path d="M88 98 l10 10 M98 98 l-10 10" fill="none" stroke="#3a1821" stroke-width="4" stroke-linecap="round"/>
      <path d="M122 98 l10 10 M132 98 l-10 10" fill="none" stroke="#3a1821" stroke-width="4" stroke-linecap="round"/>
      <path d="M98 136 C106 126 114 126 122 136" fill="none" stroke="#4b2830" stroke-width="4" stroke-linecap="round"/>
    </g>
  </g>
</svg>
